<?xml version="1.0" encoding="utf-8"?>
<!-- Generator: Adobe Illustrator 16.0.0, SVG Export Plug-In . SVG Version: 6.00 Build 0)  -->
<!DOCTYPE svg PUBLIC "-//W3C//DTD SVG 1.1//EN" "http://www.w3.org/Graphics/SVG/1.1/DTD/svg11.dtd">
<svg version="1.1" id="Layer_1" xmlns="http://www.w3.org/2000/svg" xmlns:xlink="http://www.w3.org/1999/xlink" x="0px" y="0px"
	 width="424px" height="423.999px" viewBox="-123.67 1.33 424 423.999" enable-background="new -123.67 1.33 424 423.999"
	 xml:space="preserve">
<path fill="#006AB7" d="M97.312,1.33c-11.52,4.464-13.104,9.432-13.534,25.416c-1.944,0.216-5.977-1.656-4.608,8.064
	c0,0,0.72,6.48,3.312,5.4c-2.016,14.112-0.414,17.644-9.791,18.648c-2.016,0.216-4.465,0.36-7.488,0.504l-0.936,1.296
	c-12.816,1.224-19.164,0.405-27.433,11.304c-3.168,4.176-6.552,10.08-10.728,18.504c0,0-3.816,9.432-4.969,13.32
	c-3.672,7.704-12.672,24.768-15.336,35.712c-0.863,3.744-2.52,4.896-0.144,10.296c3.528,7.776-2.304,9.792,17.712,9.216v4.608
	c0,0-5.328,4.608-6.48,7.344c-1.08,2.808-4.176,16.56-4.031,23.112c0.359,17.064,14.256,31.318,18.359,48.312l9.288,1.297
	c5.04,11.592,27.072,42.838,32.185,47.879c0.072,0.072,0.144,0.145,0.216,0.217c1.151,2.951,6.84,6.625,10.151,10.297
	c2.017,1.943,11.306,12.023,23.689,21.6c4.546,3.516,9.434,6.984,14.544,9.938c-0.144-0.074,3.024,6.264,4.608,11.445
	c-6.336,5.111,5.976,14.475,9.72,29.953c0.216,2.086-3.601,4.176,2.088,9.287c-0.36,23.398-7.487,34.495,4.464,40.974
	l-230.208,0.057c-19.151-0.432-35.632-15.981-35.632-35.206V36.811c0-19.368,15.48-34.992,34.632-35.424L97.312,1.33z"/>
<path fill="#D71E54" d="M177.552,207.213c1.678,3.887,2.612,8.169,2.612,12.671c0,17.673-14.328,32-32.001,32
	c-17.674,0-31.999-14.327-31.999-32c0-13.618,8.51-25.241,20.499-29.862c0.108-0.042,0.216-0.086,0.325-0.128
	c0.139-0.052,0.277-0.102,0.417-0.151c1.06-0.387,2.143-0.725,3.251-0.997c-3.527-9.144-11.233-23.832-13.465-28.656
	c-2.231-4.752-7.416-34.776-8.495-40.68c-0.216-1.368-13.536,7.776-13.607,8.28c-0.792,0.792-10.079,24.912-10.44,26.136
	l-0.286,4.104c0,0,4.678,0.504,7.198,8.424c2.594,7.92,10.514,36.864,10.514,36.864l-2.23,2.088
	c9.934,33.264,6.479,47.59,10.871,57.313c5.758,13.893,7.199,12.021,12.023,23.615c3.455,8.424,7.344,41.615,8.641,43.129
	c5.327,6.766,8.279,12.094,8.279,15.982s-4.605,15.336-2.952,21.889c1.009,4.031,1.442,12.814,3.385,14.398
	c0,0,1.655,3.383,0.863,4.824l-0.575,1.801c2.951,10.512,12.527,27.222-2.951,36.653l0.358-0.072
	c1.094-0.167,2.17-0.381,3.227-0.636l-0.679,0.634l115.364,0.436c19.151-0.432,34.632-14.909,34.632-34.278V37.682
	c0-19.225-16.48-35.92-35.632-36.352l-122.525,0c-0.001,0-0.002,0-0.003,0H108.4c5.4,1.944,8.496,4.248,10.298,7.848
	c4.317,0.36,9.433,10.08,1.438,24.552c3.527,2.448,0.791,6.048-1.729,10.152c-0.792,1.296-1.584,3.672-3.96,3.528
	c-3.168,6.552-6.841,12.744-9.647,13.104c-0.791,1.008-1.369,3.816-0.145,5.112c4.107,1.872,9.072,4.32,11.594,6.696l0.146,1.512
	c3.168,1.872,4.824,3.384,8.062,5.472c8.496,5.4,18.938,14.976,17.641,47.88c2.447,7.2,3.528,21.24,5.688,25.704
	c4.394,8.856,7.416,14.616,8.712,22.896c0,0,1.297,12.96,2.952,13.896c8.195,1.881,6.552,2.759,7.289,4.155
	c0.616,0.441,1.222,0.896,1.805,1.378c1.946,0.897,4.667,1.739,4.85,5c1.651,2.116,3.045,4.441,4.128,6.935"/>
</svg>
