<svg xmlns="http://www.w3.org/2000/svg" xmlns:xlink="http://www.w3.org/1999/xlink" version="1.1" x="0px" y="0px" viewBox="0 0 48 60" enable-background="new 0 0 48 48" xml:space="preserve"><g><path fill="#000000" d="M39.1,20.5c-0.1,0.3-0.3,0.5-0.4,0.8c-0.2,0.4-0.3,0.7-0.5,1.1c-0.2,0.3-0.3,0.5-0.5,0.8   c5.5,1.2,6.8,2.7,6.8,3.1c0,0,0,0.1,0,0.2c-0.1,0.1-0.5,0.4-0.9,0.9c-2.3,1.4-8.8,3.3-19.5,3.3c-10.8,0-17.4-2-19.6-3.4   c-0.4-0.4-0.6-0.6-0.8-0.8c0-0.1-0.1-0.1-0.1-0.2c0-0.3,1.3-1.9,6.9-3.1c-0.5-0.8-1-1.6-1.4-2.5c0,0,0-0.1,0-0.1   c-4.2,1-8.3,2.7-8.3,5.7c0,0.8,0.3,1.6,0.9,2.2l0,0c0,0,0,0,0.1,0.1c0.1,0.1,0.2,0.3,0.4,0.4c1.5,1.5,6.6,7.4,8.1,17.1l2.8-0.4   c-0.9-6.1-3.1-10.8-5.2-14c4.5,1.3,10.4,1.8,16.2,1.8c5.7,0,11.5-0.6,16-1.8c-2.1,3.2-4.4,7.8-5.3,13.9l2.8,0.4   c1.5-9.3,6.4-15,8.2-16.9c1-0.8,1.6-1.8,1.6-2.9C47.3,23.3,43.3,21.5,39.1,20.5z"/><path fill="#000000" d="M21.6,12.3l2,1.2l6-10.2c-3-1.4-6.2-1.5-9.2-0.7C22.3,5.7,22.7,9.3,21.6,12.3z"/><path fill="#000000" d="M18.5,12.1c1.4-2.4,1.1-5.6-0.9-8.4c-2.1,1.1-3.8,2.8-5.1,4.9c-1.3,2.2-1.9,4.5-1.8,6.8   C14,15.8,17.1,14.5,18.5,12.1z"/><path fill="#000000" d="M27.8,15.9c2.1-2.5,5.5-3.8,9.2-3.6c-0.7-3-2.4-5.7-5-7.6l-6,10.2L27.8,15.9z"/><path fill="#000000" d="M24.5,17.3l-6,10.2c2.9,1.3,6.2,1.5,9.1,0.7c-2-3.2-2.5-6.8-1.3-9.8L24.5,17.3z"/><path fill="#000000" d="M11.7,18.3c-0.2,0-0.5,0-0.7,0c0.7,3,2.4,5.8,5,7.8l6-10.2l-2-1.2C18.2,17,15.1,18.3,11.7,18.3z"/><path fill="#000000" d="M29.4,18.6c-1.4,2.4-1,5.7,0.9,8.5c2.1-1.1,3.9-2.8,5.2-5c1.3-2.2,1.9-4.6,1.8-6.9   C33.9,14.9,30.8,16.1,29.4,18.6z"/></g><text x="0" y="63" fill="#000000" font-size="5px" font-weight="bold" font-family="'Helvetica Neue', Helvetica, Arial-Unicode, Arial, Sans-serif">Created by Creative Stall</text><text x="0" y="68" fill="#000000" font-size="5px" font-weight="bold" font-family="'Helvetica Neue', Helvetica, Arial-Unicode, Arial, Sans-serif">from the Noun Project</text></svg>